<svg xmlns="http://www.w3.org/2000/svg" xmlns:xlink="http://www.w3.org/1999/xlink" xmlns:inkscape="http://www.inkscape.org/namespaces/inkscape" version="1.1" width="1100" height="460" viewBox="530 260 1100 460">
<defs>
<clipPath id="clip_1">
<path transform="matrix(1,0,0,-1,0,1080)" d="M0 0H2160V1080H0Z"/>
</clipPath>
<clipPath id="clip_2">
<path transform="matrix(1,0,0,-1,0,1080)" d="M0 0H2160V1080H0Z"/>
</clipPath>
<clipPath id="clip_3">
<path transform="matrix(1,0,0,-1,0,1080)" d="M0 0H2160V1080H0Z"/>
</clipPath>
<clipPath id="clip_4">
<path transform="matrix(1,0,0,-1,0,1080)" d="M0 0H2160V1080H0Z"/>
</clipPath>
<clipPath id="clip_5">
<path transform="matrix(1,0,0,-1,0,1080)" d="M0 0H2160V1080H0Z"/>
</clipPath>
</defs>


<g clip-path="url(#clip_2)">
<path transform="matrix(1,0,0,-1,850.4916,421.67549)" d="M0 0C2.456 4.2 4.654 8.57 6.552 13.107 4.377 8.757 2.193 4.388 0 0" fill="#eb5c2d"/>
</g>
<path transform="matrix(1,0,0,-1,675.909,488.03443)" d="M0 0V30.864 61.728 92.592 123.455H-139.223V95.946 68.437 19.29-29.857-79.005-128.152H0V-66.424-4.697-3.858-3.02-2.349-1.006Z" fill="#eb5c2d"/>
<g clip-path="url(#clip_3)">
<path transform="matrix(1,0,0,-1,792.9857,511.07429)" d="M0 0-56.86 20.691 0 41.383C24.378 50.254 44.615 67.359 57.506 89.399 59.699 93.787 61.883 98.156 64.058 102.506 64.729 104.108 65.381 105.721 65.978 107.361L80.219 146.495H-65.077C-69.329 135.98-73.632 125.47-77.993 114.96-82.355 104.445-86.716 93.993-91.078 83.593-95.438 73.193-99.747 62.736-103.993 52.226-108.244 41.711-112.605 31.201-117.077 20.691L-68.432-105.112H80.219L65.978-65.978C54.819-35.314 30.664-11.159 0 0" fill="#eb5c2d"/>
<path transform="matrix(1,0,0,-1,1012.5424,535.0009)" d="M0 0V18.786 19.29C0 19.4 .11 19.457 .335 19.457H141.235V66.76H.335 0V67.431 85.881H.335 146.268V170.421H-126.436L-112.195 131.288C-101.037 100.624-76.882 76.468-46.217 65.31L10.643 44.618-46.217 23.927C-76.882 12.768-101.037-11.388-112.195-42.052L-126.436-81.185H148.28V0H.335Z" fill="#eb5c2d"/>
</g>
<path transform="matrix(1,0,0,-1,1178.0396,393.59809)" d="M0 0V-29.354-77.663-125.971-174.28-222.588H139.223V-181.828-141.235-100.811-35.896 29.019H0Z" fill="#eb5c2d"/>
<path transform="matrix(1,0,0,-1,1477.5779,463.5442)" d="M0 0V.335H142.576V98.965H-139.559V68.269 37.573-10.065-57.535-105.005-152.642H0V-133.856-118.927-99.973-99.637H137.545V-19.793H0V-19.458Z" fill="#eb5c2d"/>
<path transform="matrix(1,0,0,-1,0,1080)" d="M1263.926 364.58H536.68606V387.107H1263.926Z" fill="#874b27"/>
<path transform="matrix(1,0,0,-1,0,1080)" d="M1263.926 400.053H536.68606V415.823H1263.926Z" fill="#eb5c2d"/>
<path transform="matrix(1,0,0,-1,0,1080)" d="M1263.926 428.953H536.68606V437.963H1263.926Z" fill="#f4981e"/>
<g clip-path="url(#clip_4)">
<path transform="matrix(1,0,0,-1,1312.9468,711.9499)" d="M0 0C-5.001 0-9.326 1.12-12.978 3.355-16.629 5.591-19.441 8.766-21.415 12.879-23.389 16.99-24.376 21.809-24.376 27.336-24.376 32.928-23.389 37.763-21.415 41.843-19.441 45.922-16.662 49.097-13.076 51.366-9.49 53.636-5.264 54.771-.394 54.771 4.276 54.771 8.388 53.685 11.942 51.514 15.494 49.343 18.257 46.201 20.231 42.09 22.205 37.978 23.191 32.994 23.191 27.139V24.573H-14.704C-14.376 19.177-12.928 15.131-10.362 12.435-7.796 9.736-4.342 8.388 0 8.388 3.29 8.388 6.003 9.161 8.142 10.707 10.279 12.252 11.776 14.275 12.632 16.777L22.402 16.086C21.021 11.348 18.356 7.483 14.408 4.49 10.461 1.495 5.658 0 0 0M-14.704 32.171H13.224C12.829 37.04 11.414 40.625 8.98 42.929 6.546 45.231 3.42 46.383-.394 46.383-4.277 46.383-7.468 45.182-9.968 42.781-12.468 40.378-14.047 36.842-14.704 32.171" fill="#eb5c2d"/>
<path transform="matrix(1,0,0,-1,1358.3434,710.7657)" d="M0 0C-3.225 0-5.822 .839-7.796 2.517-9.77 4.194-10.757 6.841-10.757 10.461V70.067H-1.481V11.25C-1.481 10.131-1.201 9.292-.642 8.734-.083 8.174 .755 7.895 1.875 7.895H6.316V0Z" fill="#eb5c2d"/>
<path transform="matrix(1,0,0,-1,1394.8574,711.9499)" d="M0 0C-5.001 0-9.326 1.12-12.978 3.355-16.629 5.591-19.441 8.766-21.415 12.879-23.389 16.99-24.376 21.809-24.376 27.336-24.376 32.928-23.389 37.763-21.415 41.843-19.441 45.922-16.662 49.097-13.075 51.366-9.49 53.636-5.264 54.771-.394 54.771 4.276 54.771 8.388 53.685 11.942 51.514 15.494 49.343 18.257 46.201 20.231 42.09 22.205 37.978 23.191 32.994 23.191 27.139V24.573H-14.704C-14.376 19.177-12.928 15.131-10.362 12.435-7.796 9.736-4.342 8.388 0 8.388 3.289 8.388 6.003 9.161 8.142 10.707 10.279 12.252 11.777 14.275 12.632 16.777L22.402 16.086C21.021 11.348 18.356 7.483 14.408 4.49 10.461 1.495 5.658 0 0 0M-14.704 32.171H13.224C12.829 37.04 11.414 40.625 8.98 42.929 6.546 45.231 3.42 46.383-.394 46.383-4.277 46.383-7.468 45.182-9.968 42.781-12.468 40.378-14.047 36.842-14.704 32.171" fill="#eb5c2d"/>
<path transform="matrix(1,0,0,-1,1449.9243,711.9499)" d="M0 0C-4.934 0-9.227 1.12-12.879 3.355-16.53 5.591-19.359 8.766-21.366 12.879-23.373 16.99-24.376 21.809-24.376 27.336-24.376 32.928-23.373 37.763-21.366 41.843-19.359 45.922-16.53 49.097-12.879 51.366-9.227 53.636-4.934 54.771 0 54.771 4.145 54.771 7.812 54.046 11.004 52.6 14.195 51.152 16.809 49.048 18.849 46.284 20.887 43.521 22.205 40.165 22.797 36.218L13.125 35.626C12.533 39.046 11.068 41.695 8.734 43.57 6.398 45.445 3.486 46.383 0 46.383-4.606 46.383-8.208 44.688-10.806 41.3-13.406 37.911-14.704 33.258-14.704 27.336-14.704 21.415-13.406 16.777-10.806 13.421-8.208 10.066-4.606 8.388 0 8.388 3.486 8.388 6.398 9.358 8.734 11.299 11.068 13.239 12.533 16.151 13.125 20.033L22.797 19.441C22.205 15.494 20.905 12.072 18.899 9.178 16.891 6.282 14.276 4.029 11.053 2.418 7.829 .806 4.145 0 0 0" fill="#eb5c2d"/>
<path transform="matrix(1,0,0,-1,0,1080)" d="M1478.346 421.637H1509.333V413.742H1478.346ZM1500.353 369.234C1495.483 369.234 1491.898 370.352 1489.596 372.59 1487.293 374.826 1486.142 378.313 1486.142 383.051V433.874H1495.419V383.445C1495.419 381.077 1495.945 379.431 1496.997 378.511 1498.049 377.589 1499.662 377.129 1501.833 377.129H1509.333V369.234Z" fill="#eb5c2d"/>
<path transform="matrix(1,0,0,-1,1520.7786,710.7657)" d="M0 0V52.403H8.29L8.685 38.882 7.895 39.179C8.552 43.783 9.983 47.138 12.188 49.244 14.391 51.35 17.335 52.403 21.021 52.403H26.152V43.817H21.12C18.488 43.817 16.299 43.356 14.556 42.435 12.813 41.513 11.497 40.149 10.609 38.34 9.721 36.53 9.277 34.178 9.277 31.284V0Z" fill="#eb5c2d"/>
</g>
<path transform="matrix(1,0,0,-1,0,1080)" d="M1555.812 439.598H1565.484V429.53199H1555.812ZM1556.01 421.637H1565.287V369.234H1556.01Z" fill="#eb5c2d"/>
<g clip-path="url(#clip_5)">
<path transform="matrix(1,0,0,-1,1600.5173,711.9499)" d="M0 0C-4.934 0-9.227 1.12-12.879 3.355-16.53 5.591-19.36 8.766-21.366 12.879-23.373 16.99-24.376 21.809-24.376 27.336-24.376 32.928-23.373 37.763-21.366 41.843-19.36 45.922-16.53 49.097-12.879 51.366-9.227 53.636-4.934 54.771 0 54.771 4.145 54.771 7.811 54.046 11.004 52.6 14.194 51.152 16.809 49.048 18.849 46.284 20.887 43.521 22.204 40.165 22.796 36.218L13.125 35.626C12.533 39.046 11.068 41.695 8.734 43.57 6.398 45.445 3.486 46.383 0 46.383-4.606 46.383-8.208 44.688-10.807 41.3-13.406 37.911-14.704 33.258-14.704 27.336-14.704 21.415-13.406 16.777-10.807 13.421-8.208 10.066-4.606 8.388 0 8.388 3.486 8.388 6.398 9.358 8.734 11.299 11.068 13.239 12.533 16.151 13.125 20.033L22.796 19.441C22.204 15.494 20.904 12.072 18.899 9.178 16.891 6.282 14.276 4.029 11.053 2.418 7.829 .806 4.145 0 0 0" fill="#eb5c2d"/>
</g>
</svg>
